# xmcd
#
# Track frame offsets:
#	150
#	13063
#	24844
#	35813
#	45537
#	61127
#	76668
#	88442
#	99435
#	117517
#
# Disc length: 1818 seconds
#
# Revision: 1
# Processed by: cddbd v1.5.2PL0 Copyright (c) Steve Scherf et al.
# Submitted via: audiograbber 1.83.01
#
DISCID=7607180a
DTITLE=Gene Land - Stangers and Angels
DYEAR=2000
DGENRE=Country
TTITLE0=Lost In A Border Town
TTITLE1=The One I Waited For
TTITLE2=I Hate It When That Happens
TTITLE3=Standing On The Edge Of Love
TTITLE4=Sail Away Together
TTITLE5=I Know Where You're Coming From
TTITLE6=Tell You I Love You
TTITLE7=Take My Love For Real
TTITLE8=Sttangers and Angels
TTITLE9=Cowboy's Got A Hold
EXTD=
EXTT0=
EXTT1=
EXTT2=
EXTT3=
EXTT4=
EXTT5=
EXTT6=
EXTT7=
EXTT8=
EXTT9=
PLAYORDER=
